<svg width="448" height="512" xmlns="http://www.w3.org/2000/svg">
 <!--!Font Awesome Free 6.5.2 by @fontawesome - https://fontawesome.com License - https://fontawesome.com/license/free Copyright 2024 Fonticons, Inc.-->

 <g>
  <title>Layer 1</title>
  <path id="svg_1" d="m448,96c0,-35.3 -28.7,-64 -64,-64l-320,0c-35.3,0 -64,28.7 -64,64l0,320c0,35.3 28.7,64 64,64l320,0c35.3,0 64,-28.7 64,-64l0,-320zm-182.2,311.7c0,-1.8 0,-6 0.1,-11.6c0.1,-11.4 0.1,-28.8 0.1,-43.7c0,-15.6 -5.2,-25.5 -11.3,-30.7c37,-4.1 76,-9.2 76,-73.1c0,-18.2 -6.5,-27.3 -17.1,-39c1.7,-4.3 7.4,-22 -1.7,-45c-13.9,-4.3 -45.7,17.9 -45.7,17.9c-13.2,-3.7 -27.5,-5.6 -41.6,-5.6s-28.4,1.9 -41.6,5.6c0,0 -31.8,-22.2 -45.7,-17.9c-9.1,22.9 -3.5,40.6 -1.7,45c-10.6,11.7 -15.6,20.8 -15.6,39c0,63.6 37.3,69 74.3,73.1c-4.8,4.3 -9.1,11.7 -10.6,22.3c-9.5,4.3 -33.8,11.7 -48.3,-13.9c-9.1,-15.8 -25.5,-17.1 -25.5,-17.1c-16.2,-0.2 -1.1,10.2 -1.1,10.2c10.8,5 18.4,24.2 18.4,24.2c9.7,29.7 56.1,19.7 56.1,19.7c0,9 0.1,21.7 0.1,30.6c0,4.8 0.1,8.6 0.1,10c0,4.3 -3,9.5 -11.5,8c-66,-22.1 -112.2,-84.9 -112.2,-158.3c0,-91.8 70.2,-161.5 162,-161.5s166.2,69.7 166.2,161.5c0.1,73.4 -44.7,136.3 -110.7,158.3c-8.4,1.5 -11.5,-3.7 -11.5,-8zm-90.5,-54.8c-0.2,-1.5 1.1,-2.8 3,-3.2c1.9,-0.2 3.7,0.6 3.9,1.9c0.3,1.3 -1,2.6 -3,3c-1.9,0.4 -3.7,-0.4 -3.9,-1.7zm-9.1,3.2c-2.2,0.2 -3.7,-0.9 -3.7,-2.4c0,-1.3 1.5,-2.4 3.5,-2.4c1.9,-0.2 3.7,0.9 3.7,2.4c0,1.3 -1.5,2.4 -3.5,2.4zm-14.3,-2.2c-1.9,-0.4 -3.2,-1.9 -2.8,-3.2s2.4,-1.9 4.1,-1.5c2,0.6 3.3,2.1 2.8,3.4c-0.4,1.3 -2.4,1.9 -4.1,1.3zm-12.5,-7.3c-1.5,-1.3 -1.9,-3.2 -0.9,-4.1c0.9,-1.1 2.8,-0.9 4.3,0.6c1.3,1.3 1.8,3.3 0.9,4.1c-0.9,1.1 -2.8,0.9 -4.3,-0.6zm-8.5,-10c-1.1,-1.5 -1.1,-3.2 0,-3.9c1.1,-0.9 2.8,-0.2 3.7,1.3c1.1,1.5 1.1,3.3 0,4.1c-0.9,0.6 -2.6,0 -3.7,-1.5zm-6.3,-8.8c-1.1,-1.3 -1.3,-2.8 -0.4,-3.5c0.9,-0.9 2.4,-0.4 3.5,0.6c1.1,1.3 1.3,2.8 0.4,3.5c-0.9,0.9 -2.4,0.4 -3.5,-0.6zm-6,-6.4c-1.3,-0.6 -1.9,-1.7 -1.5,-2.6c0.4,-0.6 1.5,-0.9 2.8,-0.4c1.3,0.7 1.9,1.8 1.5,2.6c-0.4,0.9 -1.7,1.1 -2.8,0.4z" fill="#ffffff"/>
  <rect id="svg_5" height="374.99999" width="408.99999" y="73.19999" x="21.20001" stroke="null" fill="#ffffff"/>
  <!--!Font Awesome Free 6.5.2 by @fontawesome - https://fontawesome.com License - https://fontawesome.com/license/free Copyright 2024 Fonticons, Inc.-->
  <path stroke="null" fill="#0c131e" d="m342.35269,163.51652a0.85711,0.76654 0 0 0 -0.45712,-0.35772a277.18839,247.90079 0 0 0 -68.34,-18.95922a1.02853,0.91985 0 0 0 -1.08567,0.45993a192.84907,172.47272 0 0 0 -8.51393,15.63753a255.875,228.83936 0 0 0 -76.79678,0a176.84974,158.16387 0 0 0 -8.62821,-15.63753a1.08567,0.97096 0 0 0 -1.08567,-0.45993a276.38842,247.18535 0 0 0 -68.45428,18.95922a0.97138,0.86875 0 0 0 -0.45712,0.35772c-43.54103,58.20635 -55.48339,114.93071 -49.65506,170.99073a1.14281,1.02206 0 0 0 0.45712,0.71545a278.67405,249.22947 0 0 0 83.8822,37.86734a1.08567,0.97096 0 0 0 1.19995,-0.35772a198.9631,177.94075 0 0 0 17.14214,-24.93828a1.08567,0.97096 0 0 0 -0.57141,-1.32868a183.53518,164.14292 0 0 1 -26.22747,-11.19156a1.08567,0.97096 0 0 1 -0.11428,-1.58419c1.77136,-1.17537 3.54271,-2.40184 5.19978,-3.62832a1.02853,0.91985 0 0 1 1.08567,-0.15331c54.96913,22.43423 114.50949,22.43423 168.85008,0a1.02853,0.91985 0 0 1 1.08567,0.1022c1.65707,1.22647 3.42843,2.50405 5.19978,3.67942a1.08567,0.97096 0 0 1 -0.11428,1.58419a172.22136,154.02453 0 0 1 -26.22747,11.14046a1.08567,0.97096 0 0 0 -0.57141,1.32868a223.47636,199.86394 0 0 0 17.14214,24.93828a1.08567,0.97096 0 0 0 1.19995,0.35772a277.70266,248.36071 0 0 0 84.11076,-37.86734a1.08567,0.97096 0 0 0 0.45712,-0.71545c6.97114,-64.74754 -11.77093,-121.01197 -49.7122,-170.93963l0.00001,0.00002zm-172.5642,136.85391c-16.57073,0 -30.17017,-13.5934 -30.17017,-30.25299s13.37087,-30.3041 30.17017,-30.3041c16.97072,0 30.45587,13.69561 30.17017,30.25299c0,16.71069 -13.37087,30.3041 -30.17017,30.3041zm111.65247,0c-16.57073,0 -30.17017,-13.5934 -30.17017,-30.25299s13.31373,-30.3041 30.17017,-30.3041c16.97072,0 30.45587,13.69561 30.17017,30.25299c0,16.71069 -13.25659,30.3041 -30.17017,30.3041z" id="svg_3"/>
  <rect stroke="null" fill="#0c131e" x="93.86928" y="95.6953" width="188.93525" height="0" id="svg_2"/>
 </g>
</svg>